<svg viewBox="0 0 1200 800" xmlns="http://www.w3.org/2000/svg">
  <defs>
    <marker id="arrowhead" markerWidth="10" markerHeight="10" refX="9" refY="3" orient="auto">
      <polygon points="0 0, 10 3, 0 6" fill="#667eea" />
    </marker>
  </defs>
  
  <!-- Title -->
  <text x="600" y="30" font-size="24" font-weight="bold" text-anchor="middle" fill="#2d3748">AI-Assisted Contract Review Pipeline</text>
  
  <!-- Stage 1: Contract Document -->
  <rect x="50" y="80" width="140" height="140" rx="8" fill="#f7fafc" stroke="#667eea" stroke-width="2"/>
  <text x="120" y="110" font-size="13" font-weight="bold" text-anchor="middle" fill="#2d3748">Contract</text>
  <text x="120" y="127" font-size="13" font-weight="bold" text-anchor="middle" fill="#2d3748">Document</text>
  
  <!-- Document icon -->
  <rect x="75" y="140" width="90" height="60" rx="4" fill="white" stroke="#667eea" stroke-width="2"/>
  <path d="M 85 150 L 155 150" stroke="#667eea" stroke-width="1" opacity="0.3"/>
  <path d="M 85 160 L 155 160" stroke="#667eea" stroke-width="1" opacity="0.3"/>
  <path d="M 85 170 L 145 170" stroke="#667eea" stroke-width="1" opacity="0.3"/>
  <path d="M 85 180 L 155 180" stroke="#667eea" stroke-width="1" opacity="0.3"/>
  <path d="M 85 190 L 135 190" stroke="#667eea" stroke-width="1" opacity="0.3"/>
  <text x="120" y="215" font-size="10" text-anchor="middle" fill="#4a5568">Commercial</text>
  
  <!-- Arrow 1 -->
  <line x1="190" y1="150" x2="240" y2="150" stroke="#667eea" stroke-width="2" marker-end="url(#arrowhead)"/>
  
  <!-- Stage 2: Document Processing -->
  <rect x="240" y="80" width="160" height="140" rx="8" fill="#f7fafc" stroke="#764ba2" stroke-width="2"/>
  <text x="320" y="110" font-size="13" font-weight="bold" text-anchor="middle" fill="#2d3748">Ingestion &amp;</text>
  <text x="320" y="127" font-size="13" font-weight="bold" text-anchor="middle" fill="#2d3748">Parsing</text>
  
  <rect x="260" y="140" width="120" height="30" rx="4" fill="#764ba2" opacity="0.15"/>
  <text x="320" y="160" font-size="11" font-weight="bold" text-anchor="middle" fill="#764ba2">Legal-BERT</text>
  
  <rect x="260" y="175" width="120" height="18" rx="3" fill="#667eea" opacity="0.1"/>
  <text x="320" y="188" font-size="9" text-anchor="middle" fill="#4a5568">PDF/Word extraction</text>
  
  <rect x="260" y="196" width="120" height="18" rx="3" fill="#667eea" opacity="0.1"/>
  <text x="320" y="209" font-size="9" text-anchor="middle" fill="#4a5568">Structure analysis</text>
  
  <!-- Arrow 2 -->
  <line x1="400" y1="150" x2="450" y2="150" stroke="#667eea" stroke-width="2" marker-end="url(#arrowhead)"/>
  
  <!-- Stage 3: Clause Extraction -->
  <rect x="450" y="60" width="200" height="180" rx="8" fill="#f7fafc" stroke="#667eea" stroke-width="2"/>
  <text x="550" y="85" font-size="13" font-weight="bold" text-anchor="middle" fill="#2d3748">Clause Extraction &amp;</text>
  <text x="550" y="102" font-size="13" font-weight="bold" text-anchor="middle" fill="#2d3748">Classification</text>
  
  <!-- Clause types with risk indicators -->
  <g transform="translate(470, 115)">
    <rect x="0" y="0" width="160" height="22" rx="3" fill="#48bb78" opacity="0.15" stroke="#48bb78" stroke-width="1"/>
    <circle cx="10" cy="11" r="5" fill="#48bb78"/>
    <text x="25" y="15" font-size="10" text-anchor="start" fill="#2d3748">Payment Terms</text>
  </g>
  
  <g transform="translate(470, 142)">
    <rect x="0" y="0" width="160" height="22" rx="3" fill="#f6ad55" opacity="0.15" stroke="#f6ad55" stroke-width="1"/>
    <circle cx="10" cy="11" r="5" fill="#f6ad55"/>
    <text x="25" y="15" font-size="10" text-anchor="start" fill="#2d3748">Indemnification</text>
  </g>
  
  <g transform="translate(470, 169)">
    <rect x="0" y="0" width="160" height="22" rx="3" fill="#667eea" opacity="0.15" stroke="#667eea" stroke-width="1"/>
    <circle cx="10" cy="11" r="5" fill="#667eea"/>
    <text x="25" y="15" font-size="10" text-anchor="start" fill="#2d3748">Termination Rights</text>
  </g>
  
  <g transform="translate(470, 196)">
    <rect x="0" y="0" width="160" height="22" rx="3" fill="#e53e3e" opacity="0.15" stroke="#e53e3e" stroke-width="1"/>
    <circle cx="10" cy="11" r="5" fill="#e53e3e"/>
    <text x="25" y="15" font-size="10" text-anchor="start" fill="#2d3748">Liability Limits</text>
  </g>
  
  <text x="550" y="235" font-size="10" font-weight="bold" text-anchor="middle" fill="#48bb78">90-95% accuracy</text>
  
  <!-- Arrow 3 -->
  <line x1="650" y1="150" x2="700" y2="150" stroke="#667eea" stroke-width="2" marker-end="url(#arrowhead)"/>
  <text x="675" y="140" font-size="9" text-anchor="middle" fill="#4a5568">Automated</text>
  
  <!-- Stage 4: Risk Assessment -->
  <rect x="700" y="80" width="160" height="140" rx="8" fill="#f7fafc" stroke="#f6ad55" stroke-width="2"/>
  <text x="780" y="110" font-size="13" font-weight="bold" text-anchor="middle" fill="#2d3748">Risk Scoring</text>
  
  <!-- Risk matrix -->
  <g transform="translate(720, 125)">
    <rect x="0" y="0" width="120" height="25" rx="3" fill="#e53e3e" opacity="0.2" stroke="#e53e3e" stroke-width="1"/>
    <text x="10" y="17" font-size="10" font-weight="bold" text-anchor="start" fill="#e53e3e">High Risk</text>
    <text x="110" y="17" font-size="10" font-weight="bold" text-anchor="end" fill="#2d3748">8-10</text>
  </g>
  
  <g transform="translate(720, 155)">
    <rect x="0" y="0" width="120" height="25" rx="3" fill="#f6ad55" opacity="0.2" stroke="#f6ad55" stroke-width="1"/>
    <text x="10" y="17" font-size="10" font-weight="bold" text-anchor="start" fill="#f6ad55">Medium</text>
    <text x="110" y="17" font-size="10" font-weight="bold" text-anchor="end" fill="#2d3748">4-7</text>
  </g>
  
  <g transform="translate(720, 185)">
    <rect x="0" y="0" width="120" height="25" rx="3" fill="#48bb78" opacity="0.2" stroke="#48bb78" stroke-width="1"/>
    <text x="10" y="17" font-size="10" font-weight="bold" text-anchor="start" fill="#48bb78">Low Risk</text>
    <text x="110" y="17" font-size="10" font-weight="bold" text-anchor="end" fill="#2d3748">1-3</text>
  </g>
  
  <!-- Arrow 4 -->
  <line x1="860" y1="150" x2="910" y2="150" stroke="#667eea" stroke-width="2" marker-end="url(#arrowhead)"/>
  <text x="885" y="140" font-size="9" text-anchor="middle" fill="#4a5568">Review</text>
  
  <!-- Stage 5: Attorney Review -->
  <rect x="910" y="80" width="140" height="140" rx="8" fill="#f7fafc" stroke="#764ba2" stroke-width="2"/>
  <text x="980" y="110" font-size="13" font-weight="bold" text-anchor="middle" fill="#2d3748">Human</text>
  <text x="980" y="127" font-size="13" font-weight="bold" text-anchor="middle" fill="#2d3748">Validation</text>
  
  <!-- Attorney icon -->
  <circle cx="980" cy="160" r="20" fill="#764ba2" opacity="0.2"/>
  <circle cx="980" cy="155" r="7" fill="#764ba2" opacity="0.3"/>
  <path d="M 970 165 L 970 180 L 990 180 L 990 165" stroke="#764ba2" stroke-width="2" fill="none"/>
  <path d="M 965 175 L 995 175" stroke="#764ba2" stroke-width="2"/>
  
  <!-- Checklist -->
  <g transform="translate(955, 190)">
    <rect x="0" y="0" width="50" height="20" rx="2" fill="white" stroke="#764ba2" stroke-width="1"/>
    <path d="M 5 7 L 10 12 L 20 5" stroke="#48bb78" stroke-width="2" fill="none"/>
    <path d="M 25 7 L 30 12 L 40 5" stroke="#48bb78" stroke-width="2" fill="none"/>
  </g>
  
  <!-- Arrow 5 (down) -->
  <line x1="980" y1="220" x2="980" y2="270" stroke="#667eea" stroke-width="2" marker-end="url(#arrowhead)"/>
  <text x="1000" y="250" font-size="9" text-anchor="start" fill="#4a5568">Approve/</text>
  <text x="1000" y="262" font-size="9" text-anchor="start" fill="#4a5568">Revise</text>
  
  <!-- Stage 6: Output -->
  <rect x="910" y="270" width="140" height="100" rx="8" fill="#f7fafc" stroke="#48bb78" stroke-width="2"/>
  <text x="980" y="295" font-size="13" font-weight="bold" text-anchor="middle" fill="#2d3748">Structured</text>
  <text x="980" y="312" font-size="13" font-weight="bold" text-anchor="middle" fill="#2d3748">Analysis</text>
  
  <text x="980" y="335" font-size="9" text-anchor="middle" fill="#4a5568">✓ Key clauses</text>
  <text x="980" y="350" font-size="9" text-anchor="middle" fill="#4a5568">✓ Risk summary</text>
  <text x="980" y="365" font-size="9" text-anchor="middle" fill="#4a5568">✓ Recommendations</text>
  
  <!-- Annotations -->
  <rect x="450" y="255" width="200" height="30" rx="4" fill="#667eea" opacity="0.05" stroke="#667eea" stroke-width="1"/>
  <text x="550" y="275" font-size="10" text-anchor="middle" fill="#667eea">Explainability: Citations to</text>
  <text x="550" y="287" font-size="10" text-anchor="middle" fill="#667eea">source clauses</text>
  
  <rect x="700" y="235" width="160" height="30" rx="4" fill="#764ba2" opacity="0.05" stroke="#764ba2" stroke-width="1"/>
  <text x="780" y="255" font-size="9" text-anchor="middle" fill="#764ba2">Professional responsibility:</text>
  <text x="780" y="267" font-size="9" text-anchor="middle" fill="#764ba2">Attorney review required</text>
  
  <!-- Bottom Metrics Section -->
  <rect x="50" y="400" width="1100" height="360" rx="8" fill="#f7fafc" stroke="#e2e8f0" stroke-width="2"/>
  <text x="600" y="435" font-size="16" font-weight="bold" text-anchor="middle" fill="#2d3748">Key Metrics &amp; Benefits</text>
  
  <!-- Time Savings -->
  <rect x="100" y="460" width="300" height="260" rx="6" fill="white" stroke="#48bb78" stroke-width="2"/>
  <text x="250" y="490" font-size="14" font-weight="bold" text-anchor="middle" fill="#48bb78">Time Savings</text>
  <text x="250" y="535" font-size="36" font-weight="bold" text-anchor="middle" fill="#48bb78">40-60%</text>
  <text x="250" y="570" font-size="12" text-anchor="middle" fill="#4a5568">Contract review time reduced</text>
  
  <rect x="120" y="590" width="260" height="50" rx="4" fill="#48bb78" opacity="0.1"/>
  <text x="250" y="610" font-size="11" text-anchor="middle" fill="#2d3748">Attorney time value:</text>
  <text x="250" y="628" font-size="16" font-weight="bold" text-anchor="middle" fill="#48bb78">$3.6M - $9M annually</text>
  
  <rect x="120" y="650" width="260" height="55" rx="4" fill="#764ba2" opacity="0.1"/>
  <text x="250" y="675" font-size="13" font-weight="bold" text-anchor="middle" fill="#764ba2">ROI: 12-90×</text>
  <text x="250" y="695" font-size="10" text-anchor="middle" fill="#4a5568">System cost: $170K-450K annual</text>
  
  <!-- Professional Requirements -->
  <rect x="450" y="460" width="300" height="260" rx="6" fill="white" stroke="#667eea" stroke-width="2"/>
  <text x="600" y="490" font-size="14" font-weight="bold" text-anchor="middle" fill="#667eea">Professional Requirements</text>
  
  <g transform="translate(470, 510)">
    <circle cx="10" cy="10" r="8" fill="#764ba2" opacity="0.2"/>
    <text x="10" y="14" font-size="12" font-weight="bold" text-anchor="middle" fill="#764ba2">✓</text>
    <text x="30" y="14" font-size="11" text-anchor="start" fill="#2d3748">Attorney oversight maintained</text>
  </g>
  
  <g transform="translate(470, 545)">
    <circle cx="10" cy="10" r="8" fill="#764ba2" opacity="0.2"/>
    <text x="10" y="14" font-size="12" font-weight="bold" text-anchor="middle" fill="#764ba2">✓</text>
    <text x="30" y="14" font-size="11" text-anchor="start" fill="#2d3748">Explainable outputs with citations</text>
  </g>
  
  <g transform="translate(470, 580)">
    <circle cx="10" cy="10" r="8" fill="#764ba2" opacity="0.2"/>
    <text x="10" y="14" font-size="12" font-weight="bold" text-anchor="middle" fill="#764ba2">✓</text>
    <text x="30" y="14" font-size="11" text-anchor="start" fill="#2d3748">Audit trail for all decisions</text>
  </g>
  
  <g transform="translate(470, 615)">
    <circle cx="10" cy="10" r="8" fill="#764ba2" opacity="0.2"/>
    <text x="10" y="14" font-size="12" font-weight="bold" text-anchor="middle" fill="#764ba2">✓</text>
    <text x="30" y="14" font-size="11" text-anchor="start" fill="#2d3748">Confidence scoring for predictions</text>
  </g>
  
  <rect x="470" y="640" width="260" height="65" rx="4" fill="#f6ad55" opacity="0.1"/>
  <text x="600" y="665" font-size="11" font-weight="bold" text-anchor="middle" fill="#f6ad55">Risk Mitigation</text>
  <text x="600" y="683" font-size="10" text-anchor="middle" fill="#4a5568">Human review prevents errors</text>
  <text x="600" y="698" font-size="10" text-anchor="middle" fill="#4a5568">Quality assurance processes</text>
  
  <!-- Accuracy &amp; Performance -->
  <rect x="800" y="460" width="300" height="260" rx="6" fill="white" stroke="#764ba2" stroke-width="2"/>
  <text x="950" y="490" font-size="14" font-weight="bold" text-anchor="middle" fill="#764ba2">Accuracy &amp; Performance</text>
  
  <rect x="820" y="510" width="260" height="60" rx="4" fill="#48bb78" opacity="0.1"/>
  <text x="950" y="535" font-size="12" text-anchor="middle" fill="#4a5568">Clause Identification</text>
  <text x="950" y="558" font-size="24" font-weight="bold" text-anchor="middle" fill="#48bb78">90-95%</text>
  
  <rect x="820" y="580" width="260" height="50" rx="4" fill="#667eea" opacity="0.1"/>
  <text x="950" y="600" font-size="11" text-anchor="middle" fill="#4a5568">Risk Classification</text>
  <text x="950" y="620" font-size="18" font-weight="bold" text-anchor="middle" fill="#667eea">85-92%</text>
  
  <rect x="820" y="640" width="260" height="65" rx="4" fill="#764ba2" opacity="0.1"/>
  <text x="950" y="665" font-size="11" font-weight="bold" text-anchor="middle" fill="#764ba2">Integration Effort</text>
  <text x="950" y="683" font-size="10" text-anchor="middle" fill="#4a5568">60-80% of deployment time</text>
  <text x="950" y="698" font-size="10" text-anchor="middle" fill="#4a5568">Document management systems</text>
</svg>
