<?xml version="1.0" encoding="UTF-8"?>
<svg xmlns="http://www.w3.org/2000/svg" viewBox="0 0 1200 1000">
  <defs>
    <style>
      .title { font: bold 20px sans-serif; fill: #2d3748; }
      .subtitle { font: bold 16px sans-serif; fill: #2d3748; }
      .label { font: 14px sans-serif; fill: #2d3748; }
      .annotation { font: 12px sans-serif; fill: #718096; }
      .metric { font: bold 13px sans-serif; }
      .header-cell { fill: #667eea; stroke: #4c51bf; stroke-width: 2; }
      .cell { fill: white; stroke: #cbd5e0; stroke-width: 1; }
    </style>
  </defs>
  
  <text x="600" y="30" class="title" text-anchor="middle">GPU Comparison Matrix</text>
  <text x="600" y="55" class="annotation" text-anchor="middle">Key Specifications for Deep Learning Workloads (2024-2025)</text>
  
  <!-- Header Row -->
  <rect x="50" y="80" width="200" height="50" class="header-cell" rx="5"/>
  <text x="150" y="110" class="subtitle" text-anchor="middle" fill="white">GPU Model</text>
  
  <rect x="260" y="80" width="180" height="50" class="header-cell" rx="5"/>
  <text x="350" y="110" class="subtitle" text-anchor="middle" fill="white">Memory</text>
  
  <rect x="450" y="80" width="180" height="50" class="header-cell" rx="5"/>
  <text x="540" y="110" class="subtitle" text-anchor="middle" fill="white">Compute</text>
  
  <rect x="640" y="80" width="180" height="50" class="header-cell" rx="5"/>
  <text x="730" y="110" class="subtitle" text-anchor="middle" fill="white">Bandwidth</text>
  
  <rect x="830" y="80" width="140" height="50" class="header-cell" rx="5"/>
  <text x="900" y="110" class="subtitle" text-anchor="middle" fill="white">Cost</text>
  
  <rect x="980" y="80" width="170" height="50" class="header-cell" rx="5"/>
  <text x="1065" y="110" class="subtitle" text-anchor="middle" fill="white">Best Use</text>
  
  <!-- A100 80GB Row -->
  <rect x="50" y="140" width="200" height="90" fill="#e6f2ff" stroke="#667eea" stroke-width="2" rx="3"/>
  <text x="150" y="170" class="label" text-anchor="middle">A100 80GB</text>
  <text x="150" y="195" class="metric" text-anchor="middle" fill="#667eea">2020</text>
  <text x="150" y="215" class="annotation" text-anchor="middle">Ampere</text>
  
  <rect x="260" y="140" width="180" height="90" class="cell" rx="3"/>
  <text x="350" y="175" class="metric" text-anchor="middle">80 GB</text>
  <text x="350" y="195" class="annotation" text-anchor="middle">HBM2e</text>
  
  <rect x="450" y="140" width="180" height="90" class="cell" rx="3"/>
  <text x="540" y="175" class="metric" text-anchor="middle">312 TFLOPS</text>
  <text x="540" y="195" class="annotation" text-anchor="middle">FP16</text>
  <text x="540" y="215" class="annotation" text-anchor="middle">156 TF (TF32)</text>
  
  <rect x="640" y="140" width="180" height="90" class="cell" rx="3"/>
  <text x="730" y="185" class="metric" text-anchor="middle">2,039 GB/s</text>
  
  <rect x="830" y="140" width="140" height="90" class="cell" rx="3"/>
  <text x="900" y="185" class="metric" text-anchor="middle">$15-20K</text>
  
  <rect x="980" y="140" width="170" height="90" class="cell" rx="3"/>
  <text x="1065" y="175" class="annotation" text-anchor="middle" font-size="11">Large model</text>
  <text x="1065" y="193" class="annotation" text-anchor="middle" font-size="11">training</text>
  <text x="1065" y="211" class="annotation" text-anchor="middle" font-size="11">Production</text>
  
  <!-- H100 Row -->
  <rect x="50" y="240" width="200" height="90" fill="#fef5ff" stroke="#f093fb" stroke-width="2" rx="3"/>
  <text x="150" y="270" class="label" text-anchor="middle">H100</text>
  <text x="150" y="295" class="metric" text-anchor="middle" fill="#f093fb">2022</text>
  <text x="150" y="315" class="annotation" text-anchor="middle">Hopper</text>
  
  <rect x="260" y="240" width="180" height="90" class="cell" rx="3"/>
  <text x="350" y="275" class="metric" text-anchor="middle">80 GB</text>
  <text x="350" y="295" class="annotation" text-anchor="middle">HBM3</text>
  
  <rect x="450" y="240" width="180" height="90" class="cell" rx="3"/>
  <text x="540" y="275" class="metric" text-anchor="middle">989 TFLOPS</text>
  <text x="540" y="295" class="annotation" text-anchor="middle">FP16</text>
  <text x="540" y="315" class="annotation" text-anchor="middle">3.2× A100</text>
  
  <rect x="640" y="240" width="180" height="90" class="cell" rx="3"/>
  <text x="730" y="285" class="metric" text-anchor="middle">3,350 GB/s</text>
  
  <rect x="830" y="240" width="140" height="90" class="cell" rx="3"/>
  <text x="900" y="285" class="metric" text-anchor="middle">$30-40K</text>
  
  <rect x="980" y="240" width="170" height="90" class="cell" rx="3"/>
  <text x="1065" y="275" class="annotation" text-anchor="middle" font-size="11">Cutting-edge</text>
  <text x="1065" y="293" class="annotation" text-anchor="middle" font-size="11">training</text>
  <text x="1065" y="311" class="annotation" text-anchor="middle" font-size="11">Max performance</text>
  
  <!-- H200 Row -->
  <rect x="50" y="340" width="200" height="90" fill="#fef5ff" stroke="#f093fb" stroke-width="2" rx="3"/>
  <text x="150" y="370" class="label" text-anchor="middle">H200</text>
  <text x="150" y="395" class="metric" text-anchor="middle" fill="#f093fb">2024</text>
  <text x="150" y="415" class="annotation" text-anchor="middle">Hopper+</text>
  
  <rect x="260" y="340" width="180" height="90" class="cell" rx="3"/>
  <text x="350" y="375" class="metric" text-anchor="middle">141 GB</text>
  <text x="350" y="395" class="annotation" text-anchor="middle">HBM3e</text>
  
  <rect x="450" y="340" width="180" height="90" class="cell" rx="3"/>
  <text x="540" y="375" class="metric" text-anchor="middle">989 TFLOPS</text>
  <text x="540" y="395" class="annotation" text-anchor="middle">FP16</text>
  <text x="540" y="415" class="annotation" text-anchor="middle">Same as H100</text>
  
  <rect x="640" y="340" width="180" height="90" class="cell" rx="3"/>
  <text x="730" y="385" class="metric" text-anchor="middle">4,800 GB/s</text>
  
  <rect x="830" y="340" width="140" height="90" class="cell" rx="3"/>
  <text x="900" y="385" class="metric" text-anchor="middle">$35-45K</text>
  
  <rect x="980" y="340" width="170" height="90" class="cell" rx="3"/>
  <text x="1065" y="375" class="annotation" text-anchor="middle" font-size="11">Very large</text>
  <text x="1065" y="393" class="annotation" text-anchor="middle" font-size="11">models</text>
  <text x="1065" y="411" class="annotation" text-anchor="middle" font-size="11">Memory-intensive</text>
  
  <!-- B200 Row -->
  <rect x="50" y="440" width="200" height="90" fill="#fff5f5" stroke="#e53e3e" stroke-width="2" rx="3"/>
  <text x="150" y="470" class="label" text-anchor="middle">B200</text>
  <text x="150" y="495" class="metric" text-anchor="middle" fill="#e53e3e">2025</text>
  <text x="150" y="515" class="annotation" text-anchor="middle">Blackwell</text>
  
  <rect x="260" y="440" width="180" height="90" class="cell" rx="3"/>
  <text x="350" y="475" class="metric" text-anchor="middle">192 GB</text>
  <text x="350" y="495" class="annotation" text-anchor="middle">HBM3e</text>
  
  <rect x="450" y="440" width="180" height="90" class="cell" rx="3"/>
  <text x="540" y="475" class="metric" text-anchor="middle">2,500 TFLOPS</text>
  <text x="540" y="495" class="annotation" text-anchor="middle">FP16</text>
  <text x="540" y="515" class="annotation" text-anchor="middle">2.5× H100</text>
  
  <rect x="640" y="440" width="180" height="90" class="cell" rx="3"/>
  <text x="730" y="485" class="metric" text-anchor="middle">8,000 GB/s</text>
  
  <rect x="830" y="440" width="140" height="90" class="cell" rx="3"/>
  <text x="900" y="485" class="metric" text-anchor="middle">$50-70K</text>
  
  <rect x="980" y="440" width="170" height="90" class="cell" rx="3"/>
  <text x="1065" y="475" class="annotation" text-anchor="middle" font-size="11">Next-gen</text>
  <text x="1065" y="493" class="annotation" text-anchor="middle" font-size="11">frontier models</text>
  <text x="1065" y="511" class="annotation" text-anchor="middle" font-size="11">Massive scale</text>
  
  <!-- B300 Row -->
  <rect x="50" y="540" width="200" height="90" fill="#fff5f5" stroke="#e53e3e" stroke-width="2" rx="3"/>
  <text x="150" y="570" class="label" text-anchor="middle">B300</text>
  <text x="150" y="595" class="metric" text-anchor="middle" fill="#e53e3e">2025</text>
  <text x="150" y="615" class="annotation" text-anchor="middle">Blackwell+</text>
  
  <rect x="260" y="540" width="180" height="90" class="cell" rx="3"/>
  <text x="350" y="575" class="metric" text-anchor="middle">288 GB</text>
  <text x="350" y="595" class="annotation" text-anchor="middle">HBM3e</text>
  
  <rect x="450" y="540" width="180" height="90" class="cell" rx="3"/>
  <text x="540" y="575" class="metric" text-anchor="middle">3,000 TFLOPS</text>
  <text x="540" y="595" class="annotation" text-anchor="middle">FP16</text>
  <text x="540" y="615" class="annotation" text-anchor="middle">3× H100</text>
  
  <rect x="640" y="540" width="180" height="90" class="cell" rx="3"/>
  <text x="730" y="585" class="metric" text-anchor="middle">10,000 GB/s</text>
  
  <rect x="830" y="540" width="140" height="90" class="cell" rx="3"/>
  <text x="900" y="585" class="metric" text-anchor="middle">$70-100K</text>
  
  <rect x="980" y="540" width="170" height="90" class="cell" rx="3"/>
  <text x="1065" y="575" class="annotation" text-anchor="middle" font-size="11">Ultra-large</text>
  <text x="1065" y="593" class="annotation" text-anchor="middle" font-size="11">models</text>
  <text x="1065" y="611" class="annotation" text-anchor="middle" font-size="11">Extreme scale</text>
  
  <!-- L4 Row -->
  <rect x="50" y="640" width="200" height="90" fill="#e6fffa" stroke="#48bb78" stroke-width="2" rx="3"/>
  <text x="150" y="670" class="label" text-anchor="middle">L4</text>
  <text x="150" y="695" class="metric" text-anchor="middle" fill="#48bb78">2023</text>
  <text x="150" y="715" class="annotation" text-anchor="middle">Ada Lovelace</text>
  
  <rect x="260" y="640" width="180" height="90" class="cell" rx="3"/>
  <text x="350" y="675" class="metric" text-anchor="middle">24 GB</text>
  <text x="350" y="695" class="annotation" text-anchor="middle">GDDR6</text>
  
  <rect x="450" y="640" width="180" height="90" class="cell" rx="3"/>
  <text x="540" y="675" class="metric" text-anchor="middle">242 TFLOPS</text>
  <text x="540" y="695" class="annotation" text-anchor="middle">FP16</text>
  
  <rect x="640" y="640" width="180" height="90" class="cell" rx="3"/>
  <text x="730" y="685" class="metric" text-anchor="middle">300 GB/s</text>
  
  <rect x="830" y="640" width="140" height="90" class="cell" rx="3"/>
  <text x="900" y="685" class="metric" text-anchor="middle">$3-5K</text>
  
  <rect x="980" y="640" width="170" height="90" class="cell" rx="3"/>
  <text x="1065" y="675" class="annotation" text-anchor="middle" font-size="11">Inference</text>
  <text x="1065" y="693" class="annotation" text-anchor="middle" font-size="11">Fine-tuning</text>
  <text x="1065" y="711" class="annotation" text-anchor="middle" font-size="11">Cost-optimized</text>
  
  <!-- Bottom insight -->
  <rect x="50" y="750" width="1100" height="220" fill="#f7fafc" stroke="#cbd5e0" stroke-width="2" rx="8"/>
  <text x="600" y="775" class="subtitle" text-anchor="middle">Selection Guidelines by Generation</text>
  
  <text x="70" y="805" class="label">Ampere (2020-2022):</text>
  <text x="70" y="825" class="annotation">A100: Mature, widely available, proven for production. Best value for established workloads.</text>
  
  <text x="70" y="855" class="label">Hopper (2022-2024):</text>
  <text x="70" y="875" class="annotation">H100: 3× faster than A100, current high-end standard. H200: 76% more memory, 43% more bandwidth.</text>
  
  <text x="70" y="905" class="label">Blackwell (2025+):</text>
  <text x="70" y="925" class="annotation">B200: 2.5× H100 performance, 192GB memory. B300: 3× H100, 288GB for trillion-parameter models.</text>
  <text x="70" y="945" class="annotation">Blackwell enables training models 2-3× larger than Hopper generation at same cost.</text>
  
  <text x="70" y="975" class="label">Cost-Optimized:</text>
  <text x="70" y="995" class="annotation">L4: Best for inference and fine-tuning. 1/10th cost of A100, sufficient for most serving workloads.</text>
</svg>
