<svg viewBox="0 0 1200 700" xmlns="http://www.w3.org/2000/svg">
  <defs>
    <linearGradient id="grad1" x1="0%" y1="0%" x2="0%" y2="100%">
      <stop offset="0%" style="stop-color:#48bb78;stop-opacity:0.8" />
      <stop offset="100%" style="stop-color:#48bb78;stop-opacity:0.3" />
    </linearGradient>
    <linearGradient id="grad2" x1="0%" y1="0%" x2="0%" y2="100%">
      <stop offset="0%" style="stop-color:#667eea;stop-opacity:0.8" />
      <stop offset="100%" style="stop-color:#667eea;stop-opacity:0.3" />
    </linearGradient>
    <linearGradient id="grad3" x1="0%" y1="0%" x2="0%" y2="100%">
      <stop offset="0%" style="stop-color:#764ba2;stop-opacity:0.8" />
      <stop offset="100%" style="stop-color:#764ba2;stop-opacity:0.3" />
    </linearGradient>
  </defs>
  
  <!-- Title -->
  <text x="600" y="30" font-size="24" font-weight="bold" text-anchor="middle" fill="#2d3748">Healthcare AI: Cost-Benefit Analysis</text>
  <text x="600" y="55" font-size="13" text-anchor="middle" fill="#718096">Comparing Three Major Application Areas</text>
  
  <!-- Column 1: Clinical Documentation -->
  <rect x="50" y="90" width="340" height="480" rx="8" fill="white" stroke="#48bb78" stroke-width="3"/>
  
  <!-- Icon -->
  <g transform="translate(190, 110)">
    <rect x="0" y="0" width="60" height="70" rx="4" fill="#48bb78" opacity="0.1" stroke="#48bb78" stroke-width="2"/>
    <line x1="10" y1="15" x2="50" y2="15" stroke="#48bb78" stroke-width="2" opacity="0.5"/>
    <line x1="10" y1="25" x2="50" y2="25" stroke="#48bb78" stroke-width="2" opacity="0.5"/>
    <line x1="10" y1="35" x2="40" y2="35" stroke="#48bb78" stroke-width="2" opacity="0.5"/>
    <circle cx="45" cy="55" r="12" fill="#48bb78" opacity="0.2"/>
    <path d="M 40 55 Q 45 50 50 55" stroke="#48bb78" stroke-width="2" fill="none"/>
  </g>
  
  <text x="220" y="205" font-size="16" font-weight="bold" text-anchor="middle" fill="#2d3748">Clinical Documentation</text>
  
  <!-- Costs -->
  <rect x="70" y="225" width="300" height="100" rx="6" fill="#f7fafc" stroke="#e2e8f0" stroke-width="1"/>
  <text x="220" y="245" font-size="13" font-weight="bold" text-anchor="middle" fill="#4a5568">Annual Costs (per physician)</text>
  <text x="90" y="268" font-size="11" text-anchor="start" fill="#4a5568">Software:</text>
  <text x="350" y="268" font-size="11" font-weight="bold" text-anchor="end" fill="#2d3748">$10K-30K</text>
  <text x="90" y="288" font-size="11" text-anchor="start" fill="#4a5568">Training &amp; Support:</text>
  <text x="350" y="288" font-size="11" font-weight="bold" text-anchor="end" fill="#2d3748">$2K-5K</text>
  <line x1="90" y1="298" x2="350" y2="298" stroke="#e2e8f0" stroke-width="1"/>
  <text x="90" y="315" font-size="12" font-weight="bold" text-anchor="start" fill="#2d3748">Total:</text>
  <text x="350" y="315" font-size="12" font-weight="bold" text-anchor="end" fill="#48bb78">$12K-35K</text>
  
  <!-- Benefits -->
  <rect x="70" y="335" width="300" height="100" rx="6" fill="#48bb78" opacity="0.05" stroke="#48bb78" stroke-width="2"/>
  <text x="220" y="355" font-size="13" font-weight="bold" text-anchor="middle" fill="#48bb78">Annual Benefits</text>
  <text x="90" y="378" font-size="11" text-anchor="start" fill="#4a5568">Time savings:</text>
  <text x="350" y="378" font-size="11" font-weight="bold" text-anchor="end" fill="#48bb78">50-70%</text>
  <text x="90" y="398" font-size="11" text-anchor="start" fill="#4a5568">Value per physician:</text>
  <text x="350" y="398" font-size="11" font-weight="bold" text-anchor="end" fill="#48bb78">$100K-280K</text>
  <text x="220" y="425" font-size="16" font-weight="bold" text-anchor="middle" fill="#48bb78">ROI: 3-10×</text>
  
  <!-- Bar chart -->
  <g transform="translate(70, 445)">
    <rect x="0" y="30" width="40" height="60" rx="3" fill="#e2e8f0"/>
    <rect x="0" y="70" width="40" height="20" rx="3" fill="#f6ad55"/>
    <text x="20" y="105" font-size="9" text-anchor="middle" fill="#4a5568">Cost</text>
    
    <rect x="80" y="0" width="40" height="90" rx="3" fill="url(#grad1)"/>
    <text x="100" y="105" font-size="9" text-anchor="middle" fill="#4a5568">Benefit</text>
    
    <line x1="0" y1="90" x2="130" y2="90" stroke="#e2e8f0" stroke-width="1"/>
  </g>
  
  <!-- Status -->
  <rect x="70" y="540" width="300" height="20" rx="10" fill="#48bb78" opacity="0.2"/>
  <circle cx="90" cy="550" r="6" fill="#48bb78"/>
  <text x="220" y="555" font-size="11" font-weight="bold" text-anchor="middle" fill="#48bb78">Rapid Adoption</text>
  
  <!-- Column 2: Medical Imaging -->
  <rect x="430" y="90" width="340" height="480" rx="8" fill="white" stroke="#667eea" stroke-width="3"/>
  
  <!-- Icon -->
  <g transform="translate(570, 110)">
    <rect x="0" y="0" width="60" height="70" rx="4" fill="#667eea" opacity="0.1" stroke="#667eea" stroke-width="2"/>
    <ellipse cx="30" cy="35" rx="20" ry="25" fill="none" stroke="#667eea" stroke-width="2" opacity="0.5"/>
    <ellipse cx="22" cy="30" rx="8" ry="12" fill="none" stroke="#667eea" stroke-width="1.5" opacity="0.6"/>
    <ellipse cx="38" cy="30" rx="8" ry="12" fill="none" stroke="#667eea" stroke-width="1.5" opacity="0.6"/>
  </g>
  
  <text x="600" y="205" font-size="16" font-weight="bold" text-anchor="middle" fill="#2d3748">Medical Imaging</text>
  
  <!-- Costs -->
  <rect x="450" y="225" width="300" height="120" rx="6" fill="#f7fafc" stroke="#e2e8f0" stroke-width="1"/>
  <text x="600" y="245" font-size="13" font-weight="bold" text-anchor="middle" fill="#4a5568">Annual Costs</text>
  <text x="470" y="268" font-size="11" text-anchor="start" fill="#4a5568">Software:</text>
  <text x="730" y="268" font-size="11" font-weight="bold" text-anchor="end" fill="#2d3748">$20K-50K</text>
  <text x="470" y="288" font-size="11" text-anchor="start" fill="#4a5568">Infrastructure:</text>
  <text x="730" y="288" font-size="11" font-weight="bold" text-anchor="end" fill="#2d3748">$10K-20K</text>
  <text x="470" y="308" font-size="10" text-anchor="start" fill="#f6ad55">Validation (one-time):</text>
  <text x="730" y="308" font-size="10" font-weight="bold" text-anchor="end" fill="#f6ad55">$500K-2M</text>
  <line x1="470" y1="318" x2="730" y2="318" stroke="#e2e8f0" stroke-width="1"/>
  <text x="470" y="335" font-size="12" font-weight="bold" text-anchor="start" fill="#2d3748">Total Annual:</text>
  <text x="730" y="335" font-size="12" font-weight="bold" text-anchor="end" fill="#667eea">$30K-70K</text>
  
  <!-- Benefits -->
  <rect x="450" y="355" width="300" height="100" rx="6" fill="#667eea" opacity="0.05" stroke="#667eea" stroke-width="2"/>
  <text x="600" y="375" font-size="13" font-weight="bold" text-anchor="middle" fill="#667eea">Annual Benefits</text>
  <text x="470" y="398" font-size="11" text-anchor="start" fill="#4a5568">Productivity gain:</text>
  <text x="730" y="398" font-size="11" font-weight="bold" text-anchor="end" fill="#667eea">20-30%</text>
  <text x="470" y="418" font-size="11" text-anchor="start" fill="#4a5568">Value per radiologist:</text>
  <text x="730" y="418" font-size="11" font-weight="bold" text-anchor="end" fill="#667eea">~$100K</text>
  <text x="600" y="445" font-size="16" font-weight="bold" text-anchor="middle" fill="#667eea">ROI: 2-5×</text>
  
  <!-- Bar chart -->
  <g transform="translate(450, 465)">
    <rect x="0" y="40" width="40" height="50" rx="3" fill="#e2e8f0"/>
    <rect x="0" y="75" width="40" height="15" rx="3" fill="#f6ad55"/>
    <text x="20" y="105" font-size="9" text-anchor="middle" fill="#4a5568">Cost</text>
    
    <rect x="80" y="20" width="40" height="70" rx="3" fill="url(#grad2)"/>
    <text x="100" y="105" font-size="9" text-anchor="middle" fill="#4a5568">Benefit</text>
    
    <line x1="0" y1="90" x2="130" y2="90" stroke="#e2e8f0" stroke-width="1"/>
  </g>
  
  <!-- Status -->
  <rect x="450" y="540" width="300" height="20" rx="10" fill="#f6ad55" opacity="0.2"/>
  <circle cx="470" cy="550" r="6" fill="#f6ad55"/>
  <text x="600" y="555" font-size="11" font-weight="bold" text-anchor="middle" fill="#f6ad55">Growing Adoption</text>
  
  <!-- Note -->
  <rect x="450" y="565" width="300" height="15" rx="3" fill="#f6ad55" opacity="0.05"/>
  <text x="600" y="576" font-size="9" text-anchor="middle" fill="#f6ad55">⚠ FDA approval required</text>
  
  <!-- Column 3: Drug Discovery -->
  <rect x="810" y="90" width="340" height="480" rx="8" fill="white" stroke="#764ba2" stroke-width="3"/>
  
  <!-- Icon -->
  <g transform="translate(950, 110)">
    <circle cx="30" cy="35" r="8" fill="#764ba2" opacity="0.3"/>
    <circle cx="15" cy="25" r="6" fill="#764ba2" opacity="0.3"/>
    <circle cx="45" cy="25" r="6" fill="#764ba2" opacity="0.3"/>
    <circle cx="20" cy="45" r="6" fill="#764ba2" opacity="0.3"/>
    <circle cx="40" cy="45" r="6" fill="#764ba2" opacity="0.3"/>
    <line x1="30" y1="35" x2="15" y2="25" stroke="#764ba2" stroke-width="2"/>
    <line x1="30" y1="35" x2="45" y2="25" stroke="#764ba2" stroke-width="2"/>
    <line x1="30" y1="35" x2="20" y2="45" stroke="#764ba2" stroke-width="2"/>
    <line x1="30" y1="35" x2="40" y2="45" stroke="#764ba2" stroke-width="2"/>
  </g>
  
  <text x="980" y="205" font-size="16" font-weight="bold" text-anchor="middle" fill="#2d3748">Drug Discovery</text>
  
  <!-- Costs -->
  <rect x="830" y="225" width="300" height="120" rx="6" fill="#f7fafc" stroke="#e2e8f0" stroke-width="1"/>
  <text x="980" y="245" font-size="13" font-weight="bold" text-anchor="middle" fill="#4a5568">Program Costs</text>
  <text x="850" y="268" font-size="11" text-anchor="start" fill="#4a5568">Infrastructure:</text>
  <text x="1110" y="268" font-size="11" font-weight="bold" text-anchor="end" fill="#2d3748">$200K-1M</text>
  <text x="850" y="288" font-size="11" text-anchor="start" fill="#4a5568">Expertise &amp; Operations:</text>
  <text x="1110" y="288" font-size="11" font-weight="bold" text-anchor="end" fill="#2d3748">$5M-20M</text>
  <text x="850" y="308" font-size="10" text-anchor="start" fill="#718096">(10-50 GPUs, specialized team)</text>
  <line x1="850" y1="318" x2="1110" y2="318" stroke="#e2e8f0" stroke-width="1"/>
  <text x="850" y="335" font-size="12" font-weight="bold" text-anchor="start" fill="#2d3748">Total:</text>
  <text x="1110" y="335" font-size="12" font-weight="bold" text-anchor="end" fill="#764ba2">$5M-20M</text>
  
  <!-- Benefits -->
  <rect x="830" y="355" width="300" height="100" rx="6" fill="#764ba2" opacity="0.05" stroke="#764ba2" stroke-width="2"/>
  <text x="980" y="375" font-size="13" font-weight="bold" text-anchor="middle" fill="#764ba2">Program Benefits</text>
  <text x="850" y="398" font-size="11" text-anchor="start" fill="#4a5568">Timeline reduction:</text>
  <text x="1110" y="398" font-size="11" font-weight="bold" text-anchor="end" fill="#764ba2">2 years</text>
  <text x="850" y="418" font-size="11" text-anchor="start" fill="#4a5568">Value per drug:</text>
  <text x="1110" y="418" font-size="11" font-weight="bold" text-anchor="end" fill="#764ba2">$200M-400M</text>
  <text x="980" y="445" font-size="16" font-weight="bold" text-anchor="middle" fill="#764ba2">ROI: 10-80×</text>
  
  <!-- Bar chart -->
  <g transform="translate(830, 465)">
    <rect x="0" y="60" width="40" height="30" rx="3" fill="#e2e8f0"/>
    <rect x="0" y="85" width="40" height="5" rx="3" fill="#f6ad55"/>
    <text x="20" y="105" font-size="9" text-anchor="middle" fill="#4a5568">Cost</text>
    
    <rect x="80" y="0" width="40" height="90" rx="3" fill="url(#grad3)"/>
    <text x="100" y="105" font-size="9" text-anchor="middle" fill="#4a5568">Benefit</text>
    
    <line x1="0" y1="90" x2="130" y2="90" stroke="#e2e8f0" stroke-width="1"/>
  </g>
  
  <!-- Status -->
  <rect x="830" y="540" width="300" height="20" rx="10" fill="#667eea" opacity="0.2"/>
  <circle cx="850" cy="550" r="6" fill="#667eea"/>
  <text x="980" y="555" font-size="11" font-weight="bold" text-anchor="middle" fill="#667eea">Specialized Adoption</text>
  
  <!-- Note -->
  <rect x="830" y="565" width="300" height="15" rx="3" fill="#764ba2" opacity="0.05"/>
  <text x="980" y="576" font-size="9" text-anchor="middle" fill="#764ba2">High variance in outcomes</text>
  
  <!-- Bottom Section: Key Factors -->
  <rect x="50" y="600" width="1100" height="80" rx="8" fill="#f7fafc" stroke="#e2e8f0" stroke-width="2"/>
  <text x="600" y="625" font-size="14" font-weight="bold" text-anchor="middle" fill="#2d3748">Key Implementation Factors</text>
  
  <g transform="translate(80, 640)">
    <rect x="0" y="0" width="250" height="30" rx="4" fill="white" stroke="#667eea" stroke-width="1"/>
    <text x="125" y="20" font-size="10" text-anchor="middle" fill="#4a5568">Regulatory: Varies by application</text>
  </g>
  
  <g transform="translate(350, 640)">
    <rect x="0" y="0" width="250" height="30" rx="4" fill="white" stroke="#667eea" stroke-width="1"/>
    <text x="125" y="20" font-size="10" text-anchor="middle" fill="#4a5568">Integration: 60-80% of effort</text>
  </g>
  
  <g transform="translate(620, 640)">
    <rect x="0" y="0" width="250" height="30" rx="4" fill="white" stroke="#667eea" stroke-width="1"/>
    <text x="125" y="20" font-size="10" text-anchor="middle" fill="#4a5568">Validation: Clinical evidence required</text>
  </g>
  
  <g transform="translate(890, 640)">
    <rect x="0" y="0" width="250" height="30" rx="4" fill="white" stroke="#667eea" stroke-width="1"/>
    <text x="125" y="20" font-size="10" text-anchor="middle" fill="#4a5568">Infrastructure: 2-50 GPUs by scale</text>
  </g>
</svg>
